<svg width="96" height="73" viewBox="0 0 96 73" fill="none" xmlns="http://www.w3.org/2000/svg">
<g clip-path="url(#clip0_2_237)">
<path d="M52.5859 27.2035C52.1358 25.5533 52.8581 24.2828 53.6755 23.1988C54.8325 21.7059 56.162 20.3208 57.5865 19.1221C64.2933 13.772 72.0411 11.7678 80.5142 12.6442C82.6677 12.8747 84.8237 13.4172 87.2129 13.8797C86.7425 11.6523 84.9513 9.98288 84.3402 7.70995C85.3542 7.77893 85.8118 8.44588 86.206 8.98856C87.8147 11.2214 89.4082 13.5011 90.9395 15.8127C91.6659 16.9298 91.562 17.5705 90.4442 18.1423C88.1312 19.3646 85.6711 19.761 83.126 19.3C83.0322 19.2696 82.9371 19.0832 82.7634 18.8194C83.9331 16.9676 86.3604 18.2724 87.861 16.8389C84.8683 15.0398 81.5905 14.6008 78.3154 14.474C74.8843 14.3486 71.5028 14.5504 68.2214 15.5628C65.0021 16.5435 62.1467 18.1607 59.3559 20.0582C56.5335 21.8936 54.355 24.3007 52.5859 27.2035Z" fill="black"/>
</g>
<path d="M19.4151 40.896C18.6544 40.9005 17.9334 41.064 17.3678 41.624C17.1465 41.8541 17.0125 42.4594 17.0023 42.8244C16.9826 43.4135 17.5191 43.9345 17.9559 44.3323C18.3165 44.6517 19.212 45.2386 19.0656 45.8285C18.1102 46.8824 17.6813 45.7393 16.8958 45.9805C16.7507 46.0216 16.5675 46.1572 16.5265 46.2795C16.3266 46.9765 16.5025 47.178 17.6581 47.5669C18.1477 47.731 18.9252 47.7001 19.3428 47.4765C19.9239 47.1716 20.4309 46.6336 20.5392 45.8708C20.6754 44.8434 19.8597 44.1664 19.3356 43.6608C19.2206 43.5502 18.5346 43.1121 18.6034 42.7252C18.6781 42.2826 19.1368 42.2041 19.8806 42.4934C20.1459 42.648 20.7352 43.2026 21.0371 43.0091C21.1851 42.9402 21.5207 42.6939 21.5169 42.3275C21.5125 41.8344 21.006 41.4292 20.4725 41.1479C20.2058 41.0073 19.4861 40.8894 19.4151 40.896ZM24.7836 41.4602C24.3307 41.483 24.0919 41.6128 23.7314 41.8283C23.1584 42.1904 23.0727 42.3362 22.6997 42.8038C21.992 43.6444 21.6705 45.2295 22.3016 46.3235C22.6615 46.7836 23.4222 47.314 24.125 47.4583C24.9641 47.645 25.6294 47.4756 26.1951 47.1831C27.1843 46.6114 27.9375 45.6066 27.8999 44.4906C28.0315 42.7026 26.8405 41.3104 24.7836 41.4602ZM23.4717 44.9683C23.4247 44.0765 24.2291 42.8519 24.9956 42.7917C25.9892 42.7131 26.7149 43.8452 26.3413 44.9884C26.1502 45.6018 25.4959 46.0679 25.0511 46.1479C24.1072 46.288 23.5114 45.6623 23.4717 44.9683ZM30.8713 38.6934C29.8938 38.8863 29.8288 40.442 29.6099 41.5874C29.295 43.2436 28.9977 44.4652 28.6228 46.1573C28.4829 46.8183 27.8611 48.583 28.3067 48.8973C28.6841 49.1903 29.3252 48.8495 29.5392 48.4215C29.6813 48.1408 29.9361 47.0555 30.0203 46.6561C30.4164 44.6284 30.828 42.8557 31.205 40.7415C31.361 39.9274 31.8767 38.5035 30.8713 38.6934ZM33.2009 43.0488C31.9954 42.8658 31.7758 43.8844 31.6074 44.9507C31.5496 45.3669 31.4347 46.3261 31.4406 46.8054C31.4576 47.8489 32.0872 48.4218 32.82 48.6818C34.8316 49.2311 35.7292 48.326 36.3401 46.7995C36.5671 46.2462 36.7165 45.6284 36.789 45.0729C36.8732 44.4061 36.9682 43.2336 36.5893 42.9545C36.3548 42.775 35.6579 42.8425 35.5027 43.2485C35.343 43.6963 35.3219 44.8343 35.2018 45.4411C35.0517 46.1995 34.5412 47.441 33.9754 47.466C32.3223 47.6582 33.0555 45.3703 33.2825 44.2821C33.3835 43.8563 33.552 43.325 33.2009 43.0488ZM41.302 43.3512C41.2483 42.3884 41.5384 42.0388 41.7135 41.3111C41.89 40.8369 42.0116 40.4837 41.311 40.4523C40.2052 40.3924 40.22 41.323 40.0099 42.1174C39.9205 42.4318 39.7631 43.2599 39.5088 43.4021C39.27 43.5318 38.3107 43.4169 38.011 43.4558C37.7208 43.5379 37.4549 43.7915 37.3853 44.0517C37.2908 44.2811 37.3429 44.7229 37.6192 44.9068C38.0025 45.1442 39.0225 44.815 39.2907 45.2092C39.1502 46.0109 39.0689 46.6499 38.9298 47.1702C38.8895 47.4194 38.6112 48.46 38.5431 48.7062C38.4918 48.926 38.0597 50.0913 38.1198 50.3228C38.1968 50.528 38.6292 50.7001 38.9399 50.6905C39.6463 50.6663 39.8922 49.1295 40.0395 48.6664C40.1105 48.3923 40.3624 47.3349 40.4195 47.0593C40.4964 46.7296 40.7592 45.1665 41.0472 44.9715C41.3212 44.7751 42.4527 44.9925 42.9077 44.8151C43.2162 44.6927 43.4257 44.3065 43.3817 43.9218C43.3113 43.2527 41.6025 43.7066 41.302 43.3512ZM45.5733 41.9842C45.1886 42.0283 44.812 42.3969 44.8099 42.819C44.8056 43.6632 46.3203 43.5831 46.3956 42.7323C46.4344 42.2296 46.0709 41.938 45.5733 41.9842ZM45.1992 44.338C44.5251 44.3235 44.2357 45.0673 44.0636 45.7672C43.8557 46.6744 43.625 47.6637 43.4126 48.6127C43.2859 49.1484 43.1021 49.6921 43.3139 49.9537C43.6115 50.3369 44.504 50.1492 44.7399 49.7798C44.9099 49.5021 44.95 48.718 45.0306 48.2197C45.166 47.333 45.3886 46.554 45.6252 45.7764C45.7468 45.4232 45.9087 45.0883 45.8859 44.9029C45.8544 44.5336 45.3971 44.3307 45.1992 44.338ZM49.163 44.0226C48.7101 44.0454 48.4712 44.1752 48.1107 44.3907C47.5378 44.7527 47.452 44.8986 47.0791 45.3662C46.3714 46.2068 46.0499 47.7919 46.681 48.8858C47.0409 49.346 47.8016 49.8764 48.5044 50.0206C49.3435 50.2074 50.0088 50.038 50.5745 49.7455C51.5637 49.1738 52.3168 48.169 52.2793 47.053C52.4109 45.2649 51.2199 43.8728 49.163 44.0226ZM47.8511 47.5307C47.8041 46.6389 48.6085 45.4143 49.375 45.3541C50.3686 45.2755 51.0943 46.4076 50.7207 47.5508C50.5296 48.1642 49.8752 48.6303 49.4304 48.7103C48.4866 48.8504 47.8908 48.2247 47.8511 47.5307ZM54.8728 47.3959C54.7869 46.4719 55.4572 44.7827 54.3213 44.8745C53.6677 44.9325 53.6056 45.9254 53.4943 46.7161C53.3486 47.7003 53.1201 48.535 52.9202 49.4994C52.7306 50.3663 52.4684 51.2537 53.4928 51.1503C53.8761 51.1202 54.4628 49.9571 54.7434 49.5643C55.2343 48.912 55.1354 48.9157 55.9281 48.0699C56.2476 47.7094 56.5816 47.2095 57.0191 47.1992C57.0368 47.8345 56.9262 48.2171 56.7724 48.8766C56.6033 49.5486 56.4561 50.2792 56.4262 50.9659C56.6937 51.5008 57.6639 51.3775 57.8947 50.9231C57.9665 50.7758 57.9459 50.4358 57.9722 50.1852C58.093 49.1703 58.6079 47.6196 58.6253 46.6501C58.6304 46.2002 58.4618 45.6616 58.3049 45.5466C57.8 45.1275 57.2174 45.4463 56.8276 45.6728C56.3162 45.9851 55.8795 46.3897 55.5249 46.8169C55.3469 47.0375 55.1483 47.1856 54.8728 47.3959ZM65.7941 49.4729C66.2352 49.294 66.7511 49.475 67.2905 49.4331C67.802 49.3883 68.0019 48.4239 67.3973 48.1492C66.723 47.8672 66.4615 48.079 66.035 47.8512C65.8502 47.4658 66.1958 45.7847 66.3233 45.3758C66.5342 44.7082 66.8792 43.4353 67.5336 43.504C67.9234 43.545 67.9667 44.0704 68.0628 44.3621C68.1588 44.6537 68.2402 45.0846 68.5033 45.1263C68.8133 45.2574 69.2984 45.1958 69.4522 44.8037C69.5914 44.5509 69.6001 43.9324 69.3787 43.3601C69.0803 42.5827 68.5079 42.0017 67.5253 42.1095C66.5148 42.2145 65.9235 42.8843 65.4019 43.829C64.9338 44.6667 64.7434 45.4068 64.5193 46.4672C64.4468 46.7552 64.4674 47.3627 64.3246 47.5166C64.1495 47.7093 64.3114 47.6419 63.9201 47.6148C63.5566 47.5907 63.1309 47.7571 63.0401 48.0854C62.9822 48.2342 62.906 48.4233 63.079 48.6526C63.5151 49.1911 63.5026 48.9083 64.1673 49.1471C64.2773 49.9751 63.8789 51.355 63.9948 52.1274C64.0718 52.6 65.0838 52.7486 65.3373 52.2122C65.6332 51.5394 65.5736 49.8298 65.7941 49.4729ZM71.5028 46.3706C71.0499 46.3934 70.8111 46.5232 70.4506 46.7387C69.8776 47.1008 69.7919 47.2466 69.419 47.7142C68.7112 48.5548 68.3898 50.1399 69.0209 51.2338C69.3807 51.694 70.1415 52.2244 70.8442 52.3687C71.6833 52.5554 72.3487 52.386 72.9143 52.0935C73.9035 51.5218 74.6567 50.517 74.6191 49.401C74.7507 47.6129 73.5597 46.2208 71.5028 46.3706ZM70.1909 49.8787C70.1439 48.9869 70.9483 47.7623 71.7148 47.7021C72.7085 47.6235 73.4341 48.7556 73.0606 49.8988C72.8694 50.5122 72.2151 50.9783 71.7703 51.0583C70.8265 51.1984 70.2306 50.5727 70.1909 49.8787ZM77.4438 47.0091C77.3331 46.8567 77.1191 46.7498 76.9088 46.7417C76.154 46.6906 76.1292 47.1947 75.8956 48.2119C75.6517 49.3265 75.4124 51.2018 75.1949 52.3332C75.1224 52.6212 75.0331 52.9356 75.0712 53.1085C75.1233 53.2829 75.3981 53.4808 75.6055 53.5166C76.1316 53.6001 76.3991 53.6 76.5881 53.1413C76.8166 52.5741 76.9681 50.9993 77.0786 50.3493C77.1035 50.1126 78.1176 49.5716 78.706 49.4645C78.9515 49.4059 79.5663 49.3156 79.866 49.2767C80.1518 49.2364 80.7006 48.9703 80.6756 48.4046C80.6477 48.1342 80.3326 47.9181 80.0431 47.8595C79.5492 47.7372 78.9549 47.9 78.5644 47.9997C78.2017 48.1023 77.6814 48.4981 77.3451 48.3502C77.4212 47.8936 77.5472 47.4986 77.4438 47.0091ZM6.1917 61.2835C6.83146 61.4915 7.25204 61.2401 7.39705 60.6641C7.66435 59.5941 7.72932 58.0384 7.91889 56.6365C8.09534 55.6275 8.34796 54.4293 8.54419 53.366C8.7126 52.5672 9.17989 51.0678 8.48151 50.8818C8.26605 50.7888 7.7978 50.824 7.68131 50.9948C7.28645 51.6712 7.39888 53.682 6.76727 54.0661C5.87618 53.9724 5.08477 54.0019 4.33517 54.3032C3.65665 54.5979 3.15695 55.0662 2.77087 55.6591C2.4551 56.1186 2.21707 56.91 2.3359 57.6545C2.45766 58.3712 3.12388 59.131 3.70139 59.5295C4.33312 59.9479 5.07545 59.9837 5.82367 60.2312C5.97394 60.5426 5.88756 61.0966 6.1917 61.2835ZM6.36107 57.2611C6.27394 57.6884 6.1942 58.5809 6.02278 58.8726C5.35228 58.957 4.38417 58.3907 4.03601 57.8192C3.46135 56.8578 4.287 55.565 5.32757 55.5759C5.97389 55.5875 6.32562 55.4555 6.50666 55.742C6.57339 56.0447 6.44967 56.82 6.36107 57.2611ZM10.9469 52.422C10.5622 52.466 10.1856 52.8347 10.1834 53.2567C10.1792 54.1009 11.6939 54.0208 11.7692 53.17C11.808 52.6673 11.4444 52.3757 10.9469 52.422ZM10.5728 54.7758C9.89862 54.7612 9.60929 55.505 9.43719 56.2049C9.22922 57.1121 8.99855 58.1014 8.78618 59.0504C8.6595 59.5861 8.47565 60.1299 8.68747 60.3915C8.98504 60.7747 9.87756 60.5869 10.1135 60.2176C10.2834 59.9398 10.3236 59.1557 10.4041 58.6574C10.5396 57.7707 10.7622 56.9917 10.9988 56.2142C11.1204 55.8609 11.2823 55.526 11.2595 55.3406C11.2279 54.9713 10.7706 54.7684 10.5728 54.7758ZM14.634 54.4706C13.8734 54.4751 13.1523 54.6386 12.5867 55.1986C12.3654 55.4287 12.2314 56.034 12.2212 56.399C12.2015 56.9881 12.738 57.5091 13.1748 57.9069C13.5354 58.2263 14.431 58.8132 14.2845 59.4031C13.3291 60.457 12.9002 59.3139 12.1147 59.5551C11.9696 59.5962 11.7865 59.7318 11.7454 59.8542C11.5455 60.5511 11.7214 60.7526 12.8771 61.1415C13.3666 61.3056 14.1441 61.2747 14.5618 61.0511C15.1428 60.7462 15.6498 60.2082 15.7582 59.4454C15.8943 58.418 15.0786 57.741 14.5546 57.2354C14.4395 57.1248 13.7535 56.6867 13.8224 56.2998C13.897 55.8572 14.3557 55.7787 15.0996 56.068C15.3649 56.2226 15.9541 56.7772 16.256 56.5837C16.404 56.5148 16.7396 56.2685 16.7359 55.9021C16.7314 55.409 16.225 55.0038 15.6915 54.7225C15.4247 54.5819 14.7051 54.464 14.634 54.4706ZM22.2465 60.6059C22.0097 59.7786 21.3487 60.1737 20.5434 60.2017C19.4552 60.2422 18.8484 59.5871 18.6782 58.795C18.5206 58.0183 19.4877 57.1205 20.5033 57.1005C20.8837 57.0983 21.245 57.277 21.7271 57.2432C22.1089 57.227 22.5053 56.8042 22.4371 56.248C22.363 55.7475 20.9457 55.5704 20.4943 55.5792C19.2837 55.5787 18.2374 56.1585 17.6096 57.1765C17.3114 57.7364 17.0661 58.5974 17.1937 59.2584C17.5463 60.5905 18.4588 61.4185 19.89 61.597C21.1819 61.761 22.4532 61.3174 22.2465 60.6059ZM26.0532 55.6708C25.6003 55.6936 25.3614 55.8233 25.0009 56.0388C24.428 56.4009 24.3422 56.5468 23.9693 57.0143C23.2616 57.855 22.9401 59.4401 23.5712 60.534C23.9311 60.9942 24.6918 61.5246 25.3946 61.6688C26.2337 61.8556 26.899 61.6862 27.4647 61.3937C28.4539 60.822 29.207 59.8172 29.1695 58.7011C29.3011 56.9131 28.1101 55.521 26.0532 55.6708ZM24.7413 59.1789C24.6943 58.2871 25.4987 57.0625 26.2652 57.0023C27.2588 56.9237 27.9845 58.0557 27.6109 59.199C27.4198 59.8123 26.7654 60.2785 26.3207 60.3584C25.3768 60.4986 24.781 59.8728 24.7413 59.1789ZM31.9157 60.8057C31.8914 60.0993 31.7703 58.9745 31.675 58.2747C31.628 57.9178 31.5678 57.1513 31.4087 56.9235C31.1266 56.5278 30.4084 56.6635 30.1535 56.9464C30.089 57.0241 29.9176 57.3158 30.0144 57.7342C30.0218 58.467 30.5776 60.4117 30.7661 61.6985C30.8409 62.3257 30.8703 62.8497 31.2917 62.9925C31.9798 63.276 32.5975 62.3555 32.9425 61.885C34.0803 60.3012 34.5382 59.561 35.1148 58.7629C35.4291 58.3173 35.8694 58.0117 35.7264 57.3632C35.6289 56.818 35.0712 56.6327 34.6367 56.8827C34.1282 57.1671 33.9033 57.8332 33.5187 58.4122C32.9846 59.074 32.4711 60.0758 31.9157 60.8057ZM37.4542 61.5427C37.8001 61.4664 38.3885 61.3594 38.8333 61.2794C39.4928 61.1657 39.8335 61.0045 40.4835 60.8475C40.8726 60.7617 41.1869 60.3162 41.1986 59.9373C41.2249 59.6867 41.0885 59.1093 41.0086 58.9319C40.5577 57.4628 39.4584 56.939 38.0442 57.269C37.4697 57.3775 36.7861 57.8547 36.3861 58.4461C35.8761 59.0119 35.6308 59.873 35.7695 61.0982C36.0254 62.2794 36.345 62.7212 37.4245 63.2992C38.0951 63.7498 39.4786 63.7122 40.2428 63.2717C40.5 63.1016 40.615 62.6773 40.3423 62.3249C39.8469 61.949 39.378 62.6599 38.4656 62.3669C37.8662 62.1772 37.5173 62.0139 37.4542 61.5427ZM37.7308 58.9112C38.6826 58.2933 39.5122 58.4368 39.763 59.533C39.6685 59.7624 39.2398 59.9567 38.9123 59.9926C38.4147 60.0389 37.5361 60.2281 37.2899 60.16C37.2048 59.8976 37.3381 59.1655 37.7308 58.9112ZM44.0683 57.5783C43.9576 57.4259 43.7436 57.319 43.5333 57.311C42.7785 57.2598 42.7537 57.7639 42.5201 58.7811C42.2762 59.8957 42.0369 61.771 41.8194 62.9024C41.7469 63.1904 41.6576 63.5048 41.6957 63.6778C41.7478 63.8522 42.0226 64.05 42.23 64.0858C42.7561 64.1693 43.0236 64.1693 43.2126 63.7105C43.4411 63.1433 43.5926 61.5685 43.7031 60.9185C43.728 60.6818 44.7421 60.1408 45.3305 60.0337C45.576 59.9751 46.1908 59.8848 46.4905 59.846C46.7763 59.8056 47.3251 59.5395 47.3001 58.9738C47.2722 58.7034 46.9571 58.4873 46.6676 58.4287C46.1737 58.3064 45.5794 58.4692 45.1889 58.5689C44.8261 58.6716 44.3059 59.0673 43.9695 58.9194C44.0457 58.4628 44.1717 58.0678 44.0683 57.5783ZM52.7486 60.1095C53.2593 60.2055 53.91 59.6404 54.9718 59.5831C55.2876 59.6585 55.6849 60.4322 55.2871 60.8691C55.035 61.1241 53.8464 60.9147 53.1422 61.0519C52.7392 61.1362 52.2211 61.3774 52.0057 61.5518C51.6672 61.8259 51.254 62.2752 51.3296 63.0292C51.3377 63.3538 51.5854 63.6755 51.8126 63.9246C52.3565 64.6434 52.9567 64.9599 53.7445 65.3665C53.971 65.4888 54.5316 65.6463 54.7727 65.6294C55.1112 65.6227 55.5259 65.1595 55.6526 64.8913C55.9544 64.1629 56.1742 63.4117 56.4122 62.6203C56.5982 61.9219 56.9124 60.9413 56.8529 60.0342C56.8176 59.2984 56.4145 58.5804 55.9323 58.3467C55.0756 58.0596 54.3626 58.2802 53.4386 58.6336C52.9726 58.7817 52.4157 58.9906 52.4268 59.5549C52.4422 59.8099 52.4943 59.9843 52.7486 60.1095ZM54.0599 62.2322C54.3259 62.2461 54.8623 62.2321 55.0272 62.4043C54.976 62.8916 54.8317 63.8619 54.3884 63.9279C53.7303 63.7602 52.7307 63.3595 52.8017 62.5505C53.0398 62.294 53.5278 62.2045 54.0599 62.2322ZM65.2513 59.9455C65.1977 58.9827 65.4878 58.6331 65.6628 57.9054C65.8394 57.4312 65.9609 57.078 65.2604 57.0466C64.1546 56.9867 64.1694 57.9173 63.9592 58.7117C63.8699 59.0261 63.7124 59.8542 63.4582 59.9964C63.2193 60.1261 62.2601 60.0112 61.9604 60.0501C61.6702 60.1322 61.4042 60.3858 61.3346 60.646C61.2402 60.8754 61.2922 61.3172 61.5685 61.5011C61.9518 61.7385 62.9718 61.4093 63.2401 61.8035C63.0995 62.6052 63.0183 63.2442 62.8791 63.7645C62.8389 64.0137 62.5606 65.0543 62.4925 65.3005C62.4412 65.5203 62.009 66.6856 62.0692 66.9171C62.1461 67.1223 62.5785 67.2944 62.8892 67.2848C63.5956 67.2605 63.8416 65.7238 63.9888 65.2607C64.0599 64.9866 64.3118 63.9292 64.3689 63.6536C64.4458 63.3238 64.7086 61.7608 64.9966 61.5658C65.2706 61.3694 66.4021 61.5868 66.8571 61.4094C67.1656 61.287 67.3751 60.9008 67.3311 60.5161C67.2606 59.847 65.5518 60.3009 65.2513 59.9455ZM69.7801 60.2808C69.6695 60.1284 69.4555 60.0214 69.2452 60.0134C68.4904 59.9622 68.4655 60.4664 68.2319 61.4835C67.9881 62.5981 67.7488 64.4734 67.5313 65.6049C67.4588 65.8929 67.3695 66.2073 67.4076 66.3802C67.4596 66.5546 67.7345 66.7524 67.9419 66.7883C68.468 66.8717 68.7355 66.8717 68.9245 66.4129C69.153 65.8457 69.3045 64.2709 69.415 63.6209C69.4399 63.3842 70.454 62.8432 71.0424 62.7362C71.2879 62.6775 71.9027 62.5873 72.2024 62.5484C72.4882 62.508 73.037 62.2419 73.012 61.6762C72.9841 61.4058 72.669 61.1897 72.3795 61.1311C71.8856 61.0088 71.2913 61.1716 70.9007 61.2713C70.538 61.374 70.0178 61.7698 69.6814 61.6218C69.7576 61.1653 69.8835 60.7703 69.7801 60.2808ZM74.7644 65.4642C75.1102 65.3879 75.6986 65.2808 76.1434 65.2009C76.8029 65.0872 77.1437 64.9259 77.7936 64.769C78.1827 64.6832 78.497 64.2376 78.5087 63.8588C78.535 63.6081 78.3986 63.0307 78.3187 62.8534C77.8678 61.3842 76.7686 60.8604 75.3543 61.1904C74.7798 61.299 74.0962 61.7761 73.6962 62.3675C73.1863 62.9333 72.9409 63.7944 73.0796 65.0196C73.3355 66.2008 73.6551 66.6427 74.7346 67.2207C75.4052 67.6712 76.7887 67.6336 77.5529 67.1931C77.8101 67.0231 77.9251 66.5988 77.6524 66.2463C77.157 65.8705 76.6881 66.5814 75.7757 66.2884C75.1763 66.0987 74.8275 65.9353 74.7644 65.4642ZM75.0409 62.8327C75.9927 62.2148 76.8223 62.3583 77.0731 63.4545C76.9786 63.6839 76.5499 63.8781 76.2224 63.9141C75.7248 63.9603 74.8462 64.1495 74.6 64.0814C74.515 63.8191 74.6482 63.087 75.0409 62.8327ZM81.1472 64.2346C81.0614 63.3106 81.7316 61.6214 80.5958 61.7132C79.9421 61.7712 79.88 62.7641 79.7687 63.5548C79.6231 64.539 79.3946 65.3737 79.1947 66.338C79.005 67.205 78.7428 68.0924 79.7672 67.9889C80.1505 67.9588 80.7373 66.7958 81.0179 66.403C81.5087 65.7507 81.4098 65.7544 82.2026 64.9086C82.522 64.548 82.8561 64.0482 83.2936 64.0379C83.3112 64.6732 83.2007 65.0558 83.0469 65.7153C82.8777 66.3873 82.7305 67.1179 82.7006 67.8045C82.9681 68.3394 83.9383 68.2162 84.1691 67.7618C84.2409 67.6145 84.2203 67.2745 84.2467 67.0239C84.3674 66.0089 84.8823 64.4583 84.8998 63.4888C84.9048 63.0388 84.7362 62.5003 84.5794 62.3852C84.0744 61.9662 83.4919 62.285 83.1021 62.5115C82.5906 62.8238 82.1539 63.2283 81.7993 63.6556C81.6213 63.8762 81.4227 64.0243 81.1472 64.2346ZM89.378 70.0267C90.0178 70.2347 90.4384 69.9833 90.5834 69.4073C90.8507 68.3374 90.9156 66.7816 91.1052 65.3798C91.2817 64.3707 91.5343 63.1725 91.7305 62.1092C91.8989 61.3105 92.3662 59.8111 91.6678 59.6251C91.4524 59.532 90.9841 59.5673 90.8676 59.738C90.4728 60.4145 90.5852 62.4252 89.9536 62.8093C89.0625 62.7157 88.2711 62.7451 87.5215 63.0464C86.843 63.3411 86.3433 63.8094 85.9572 64.4023C85.6414 64.8618 85.4034 65.6533 85.5222 66.3978C85.644 67.1144 86.3102 67.8742 86.8877 68.2728C87.5194 68.6911 88.2618 68.7269 89.01 68.9745C89.1603 69.2859 89.0739 69.8399 89.378 70.0267ZM89.5474 66.0044C89.4603 66.4316 89.3805 67.3242 89.2091 67.6158C88.5386 67.7002 87.5705 67.1339 87.2223 66.5624C86.6477 65.6011 87.4733 64.3083 88.5139 64.3191C89.1602 64.3307 89.5119 64.1988 89.693 64.4853C89.7597 64.7879 89.636 65.5632 89.5474 66.0044Z" fill="black"/>
<defs>
<clipPath id="clip0_2_237">
<rect width="28.3944" height="34.4457" fill="white" transform="translate(51.9991 27.0134) rotate(-72.0565)"/>
</clipPath>
</defs>
</svg>
